<?xml version="1.0"?>
<svg xmlns="http://www.w3.org/2000/svg" xmlns:xlink="http://www.w3.org/1999/xlink" xmlns:svgjs="http://svgjs.com/svgjs" version="1.1" width="512px" height="512px" x="0" y="0" viewBox="0 0 512 512.001" style="enable-background:new 0 0 512 512" xml:space="preserve" class=""><g><path d="m229.078125 365.71875c-2.640625 0-5.210937 1.070312-7.074219 2.929688-1.867187 1.859374-2.929687 4.441406-2.929687 7.070312 0 2.632812 1.0625 5.210938 2.929687 7.070312 1.863282 1.863282 4.433594 2.933594 7.074219 2.933594 2.628906 0 5.207031-1.070312 7.070313-2.933594 1.859374-1.859374 2.929687-4.4375 2.929687-7.070312 0-2.628906-1.070313-5.210938-2.929687-7.070312-1.863282-1.859376-4.441407-2.929688-7.070313-2.929688zm0 0" fill="#ffffff" data-original="#000000" class=""/><path d="m408.0625 75.734375h-202.289062l-64.355469-64.359375c-15.167969-15.167969-39.84375-15.167969-55.011719 0s-15.167969 39.84375 0 55.011719l9.34375 9.34375h-45.742188c-27.574218 0-50.007812 22.433593-50.007812 50.007812v66.261719c0 5.523438 4.476562 10 10.003906 10 5.523438 0 10-4.476562 10-10v-66.257812c0-16.546876 13.460938-30.007813 30.003906-30.007813h65.746094l78.398438 78.402344c.003906.003906.007812.003906.011718.007812l45.664063 45.664063c.59375.597656 1.261719 1.097656 1.976563 1.519531-.5625 3.496094-.867188 7.054687-.867188 10.664063 0 17.695312 6.894531 34.332031 19.40625 46.84375 21 21.003906 47.039062 30.734374 84.148438 30.734374 9.179687 0 19.035156-.59375 29.660156-1.761718 3.820312-.421875 7.066406-2.996094 8.34375-6.625 1.273437-3.628906.355468-7.667969-2.363282-10.390625-12.464843-12.460938-11.082031-25.832031-9.335937-42.757813 1.921875-18.625 4.316406-41.800781-16.769531-62.886718-15.683594-15.683594-37.339844-21.824219-57.714844-18.460938-.410156-.671875-.894531-1.308594-1.472656-1.890625l-69.0625-69.0625h182.285156c16.546875 0 30.007812 13.460937 30.007812 30.007813v205.96875h-418.066406v-49.695313c0-5.523437-4.476562-10.003906-10-10.003906-5.527344 0-10.003906 4.480469-10.003906 10.003906v87.699219c0 27.578125 22.433594 50.007812 50.007812 50.007812h129.058594v32.292969c-27.125.523437-49.035156 22.738281-49.035156 49.984375 0 5.523438 4.480469 10 10.003906 10h178.074219c5.527344 0 10.003906-4.476562 10.003906-10 0-27.246094-21.90625-49.460938-49.03125-49.984375v-32.292969h128.980469c27.574219 0 50.007812-22.429687 50.007812-50.007812v-243.972656c0-27.574219-22.433593-50.007813-50.007812-50.007813zm-307.511719-50.214844c3.683594-3.683593 8.519531-5.527343 13.359375-5.527343s9.679688 1.84375 13.363282 5.527343l100.625 100.628907-26.722657 26.722656-100.625-100.628906c-7.367187-7.367188-7.367187-19.355469 0-26.722657zm174.378907 239.605469c6.453124-12.964844 19.246093-21.441406 33.796874-22.230469 16.886719-.914062 32.203126-8.734375 42.738282-21.238281 1.152344 7.667969.324218 15.703125-.566406 24.324219-1.410157 13.683593-2.960938 28.710937 3.90625 43.324219-36.773438 1.742187-61.234376-5.804688-79.875-24.179688zm64.953124-65.828125c.515626.511719 1.007813 1.03125 1.480469 1.546875-6.472656 12.878906-19.226562 21.292969-33.722656 22.078125-17.820313.96875-33.894531 9.625-44.445313 23.363281-1.472656-4.554687-2.253906-9.363281-2.253906-14.289062 0-12.355469 4.8125-23.964844 13.546875-32.699219 9.011719-9.015625 20.855469-13.523437 32.695313-13.523437 11.84375 0 23.6875 4.507812 32.699218 13.523437zm-79.53125-14.15625c-.003906.003906-.007812.007813-.007812.007813-.003906.003906-.007812.007812-.011719.011718l-13.433593 13.433594-31.527344-31.53125 26.722656-26.722656 31.527344 31.53125zm46.042969 306.855469h-154.644531c4.125-11.640625 15.25-20 28.289062-20h98.066407c13.039062 0 24.164062 8.359375 28.289062 20zm-47.316406-40.203125h-60.007813v-32.070313h60.007813zm148.984375-52.070313h-358.054688c-16.542968 0-30.003906-13.460937-30.003906-30.007812v-18h418.066406v18c0 16.546875-13.460937 30.007812-30.007812 30.007812zm0 0" fill="#ffffff" data-original="#000000" class=""/><path d="m10.003906 247.007812c2.628906 0 5.207032-1.070312 7.070313-2.929687 1.859375-1.859375 2.929687-4.441406 2.929687-7.070313 0-2.628906-1.070312-5.210937-2.929687-7.070312-1.863281-1.859375-4.441407-2.929688-7.070313-2.929688-2.632812 0-5.210937 1.070313-7.074218 2.929688-1.859376 1.859375-2.929688 4.441406-2.929688 7.070312 0 2.628907 1.070312 5.210938 2.929688 7.070313 1.863281 1.859375 4.441406 2.929687 7.074218 2.929687zm0 0" fill="#ffffff" data-original="#000000" class=""/></g></svg>
