<?xml version="1.0"?>
<svg xmlns="http://www.w3.org/2000/svg" xmlns:xlink="http://www.w3.org/1999/xlink" xmlns:svgjs="http://svgjs.com/svgjs" version="1.1" width="512px" height="512px" x="0" y="0" viewBox="0 0 512 512" style="enable-background:new 0 0 512 512" xml:space="preserve"><g><g><path d="m361.535 173.462c0-58.192-47.343-105.536-105.535-105.536s-105.535 47.344-105.535 105.536 47.343 105.536 105.535 105.536 105.535-47.343 105.535-105.536zm-196.07 0c0-49.921 40.614-90.536 90.535-90.536s90.535 40.614 90.535 90.536-40.614 90.536-90.535 90.536-90.535-40.614-90.535-90.536z" fill="#ffffff" data-original="#000000"/><path d="m233.439 207.449-5.062 2.923v-73.819l63.93 36.91-28.428 16.413c-3.587 2.071-4.816 6.658-2.745 10.245 2.07 3.587 6.66 4.817 10.245 2.745l38.112-22.004c2.635-1.522 4.271-4.358 4.271-7.401-.001-3.042-1.639-5.877-4.272-7.397l-83.294-48.09c-2.636-1.521-5.91-1.521-8.545 0s-4.272 4.357-4.272 7.4v96.181c0 3.042 1.636 5.877 4.271 7.399 2.634 1.522 5.909 1.522 8.547.001l14.745-8.513c3.587-2.071 4.816-6.658 2.745-10.245-2.073-3.591-6.661-4.82-10.248-2.748z" fill="#ffffff" data-original="#000000"/><path d="m215.421 409.013c-18.218 0-33.04 14.821-33.04 33.04 0 18.218 14.821 33.039 33.04 33.039 18.218 0 33.039-14.821 33.039-33.039 0-18.219-14.821-33.04-33.039-33.04zm0 51.078c-9.947 0-18.04-8.092-18.04-18.039s8.092-18.04 18.04-18.04c9.947 0 18.039 8.092 18.039 18.04 0 9.947-8.092 18.039-18.039 18.039z" fill="#ffffff" data-original="#000000"/><path d="m429.585 442.052c0-18.218-14.821-33.04-33.039-33.04-18.219 0-33.04 14.821-33.04 33.04 0 18.218 14.821 33.039 33.04 33.039 18.218 0 33.039-14.821 33.039-33.039zm-51.079 0c0-9.947 8.093-18.04 18.04-18.04 9.946 0 18.039 8.092 18.039 18.04 0 9.947-8.093 18.039-18.039 18.039-9.947 0-18.04-8.092-18.04-18.039z" fill="#ffffff" data-original="#000000"/><path d="m441.285 249.171c0 4.73 3.848 8.578 8.578 8.578h28.559c4.729 0 8.578-3.848 8.578-8.578v-28.559c0-4.73-3.849-8.578-8.578-8.578h-28.559c-4.73 0-8.578 3.848-8.578 8.578zm15-22.137h15.715v15.715h-15.715z" fill="#ffffff" data-original="#000000"/><path d="m503.396 2.747h-384.772c-4.142 0-7.5 3.358-7.5 7.5s3.358 7.5 7.5 7.5h378.376v311.431h-138.818l29.992-51.944c5.149-8.918 6.512-19.307 3.837-29.252s-9.066-18.249-17.997-23.381c0 0 0 0-.001 0-4.963-2.853-11.338-1.116-14.216 3.868l-58.146 100.711c-87.625 0-198.3 0-286.652 0v-311.433h68.624c4.142 0 7.5-3.358 7.5-7.5s-3.358-7.5-7.5-7.5h-75.02c-4.744 0-8.603 3.859-8.603 8.603v324.226c0 4.744 3.859 8.603 8.603 8.603h253.839l15.274 26.457-12.998 22.513c-.392.678-1.013.859-1.348.906-.366.051-.901.021-1.364-.424-13.546-13.04-31.381-19.672-50.207-18.685-34.29 1.805-62.194 30.108-63.528 64.434-1.487 38.228 28.974 69.874 67.149 69.874 24.398 0 46.912-13.262 58.773-34.615l31.789-55.056 13.863 24.01c2.078 3.599 6.667 4.811 10.245 2.745 3.587-2.071 4.816-6.658 2.745-10.245l-18.193-31.509 10.943-18.952 8.67 15.018c5.446 9.428 18.295 11.307 26.104 3.788 10.522-10.128 24.371-15.279 39.017-14.512 26.625 1.401 48.292 23.38 49.329 50.037 1.162 29.919-22.724 54.291-52.161 54.291-18.97 0-36.476-10.325-45.686-26.945-2.009-3.623-6.57-4.933-10.196-2.925-3.623 2.008-4.932 6.572-2.924 10.195 11.852 21.388 34.385 34.675 58.806 34.675 38.11 0 68.638-31.574 67.149-69.874-1.335-34.326-29.239-62.628-63.528-64.434-18.837-.983-36.661 5.644-50.208 18.685-.461.444-.998.477-1.363.424-.336-.047-.957-.228-1.349-.906l-13-22.517 15.274-26.454h153.875c4.744 0 8.604-3.859 8.604-8.603v-324.225c.002-4.744-3.857-8.603-8.602-8.603zm-133.097 237.531c3.488 3.035 6 7.034 7.228 11.599 1.633 6.07.802 12.412-2.342 17.855-5.037 8.724-40.397 69.964-49.715 86.102-3.888-5.107-9.735-8.646-16.41-9.487 17.219-29.825 46.077-79.807 61.239-106.069zm-64.316 139.836c-5.227 0-9.479-4.252-9.479-9.479s4.253-9.479 9.479-9.479 9.479 4.252 9.479 9.479c.001 5.227-4.252 9.479-9.479 9.479zm-26.221-35.936h13.23l-6.615 11.457zm-18.655 123.13c-9.211 16.621-26.717 26.945-45.687 26.945-29.409 0-53.324-24.346-52.161-54.291 1.036-26.657 22.704-48.636 49.329-50.037 14.595-.774 28.473 4.362 39.016 14.512 7.814 7.521 20.663 5.637 26.105-3.789l8.785-15.217c3.887 5.107 9.733 8.647 16.407 9.49-8.773 15.196-41.507 71.848-41.794 72.387z" fill="#ffffff" data-original="#000000"/><path d="m441.285 310.6c0 4.73 3.848 8.578 8.578 8.578h28.559c4.729 0 8.578-3.848 8.578-8.578v-28.559c0-4.73-3.849-8.578-8.578-8.578h-28.559c-4.73 0-8.578 3.848-8.578 8.578zm15-22.137h15.715v15.715h-15.715z" fill="#ffffff" data-original="#000000"/><path d="m70.715 36.324c0-4.729-3.848-8.578-8.578-8.578h-28.559c-4.73 0-8.578 3.848-8.578 8.578v28.559c0 4.729 3.848 8.578 8.578 8.578h28.559c4.73 0 8.578-3.848 8.578-8.578zm-15 22.137h-15.715v-15.714h15.715z" fill="#ffffff" data-original="#000000"/><path d="m441.285 187.742c0 4.729 3.848 8.578 8.578 8.578h28.559c4.729 0 8.578-3.848 8.578-8.578v-28.559c0-4.729-3.849-8.578-8.578-8.578h-28.559c-4.73 0-8.578 3.848-8.578 8.578zm15-22.137h15.715v15.714h-15.715z" fill="#ffffff" data-original="#000000"/><path d="m62.137 273.463h-28.559c-4.73 0-8.578 3.848-8.578 8.578v28.559c0 4.73 3.848 8.578 8.578 8.578h28.559c4.73 0 8.578-3.848 8.578-8.578v-28.559c0-4.729-3.848-8.578-8.578-8.578zm-6.422 30.715h-15.715v-15.715h15.715z" fill="#ffffff" data-original="#000000"/><path d="m70.715 159.183c0-4.729-3.848-8.578-8.578-8.578h-28.559c-4.73 0-8.578 3.848-8.578 8.578v28.559c0 4.729 3.848 8.578 8.578 8.578h28.559c4.73 0 8.578-3.848 8.578-8.578zm-15 22.136h-15.715v-15.714h15.715z" fill="#ffffff" data-original="#000000"/><path d="m441.285 126.312c0 4.73 3.848 8.578 8.578 8.578h28.559c4.729 0 8.578-3.848 8.578-8.578v-28.559c0-4.73-3.849-8.578-8.578-8.578h-28.559c-4.73 0-8.578 3.848-8.578 8.578zm15-22.136h15.715v15.714h-15.715z" fill="#ffffff" data-original="#000000"/><path d="m449.863 73.461h28.559c4.729 0 8.578-3.848 8.578-8.578v-28.559c0-4.729-3.849-8.578-8.578-8.578h-28.559c-4.73 0-8.578 3.848-8.578 8.578v28.559c0 4.73 3.848 8.578 8.578 8.578zm6.422-30.714h15.715v15.714h-15.715z" fill="#ffffff" data-original="#000000"/><path d="m70.715 97.753c0-4.73-3.848-8.578-8.578-8.578h-28.559c-4.73 0-8.578 3.848-8.578 8.578v28.559c0 4.73 3.848 8.578 8.578 8.578h28.559c4.73 0 8.578-3.848 8.578-8.578zm-15 22.137h-15.715v-15.714h15.715z" fill="#ffffff" data-original="#000000"/><path d="m70.715 220.612c0-4.73-3.848-8.578-8.578-8.578h-28.559c-4.73 0-8.578 3.848-8.578 8.578v28.559c0 4.73 3.848 8.578 8.578 8.578h28.559c4.73 0 8.578-3.848 8.578-8.578zm-15 22.137h-15.715v-15.715h15.715z" fill="#ffffff" data-original="#000000"/></g></g></svg>
