<?xml version="1.0"?>
<svg xmlns="http://www.w3.org/2000/svg" xmlns:xlink="http://www.w3.org/1999/xlink" xmlns:svgjs="http://svgjs.com/svgjs" version="1.1" width="512px" height="512px" x="0" y="0" viewBox="0 0 60 60" style="enable-background:new 0 0 512 512" xml:space="preserve"><g><path d="M3,49H29.59A1.977,1.977,0,0,0,31,48.417L37.417,42A1.977,1.977,0,0,0,38,40.59V3a3,3,0,0,0-3-3H3A3,3,0,0,0,0,3V46A3,3,0,0,0,3,49ZM2,46V18H36l0,22H32a3,3,0,0,0-3,3v4H3A1,1,0,0,1,2,46Zm32.587-4L31,45.589V43a1,1,0,0,1,1-1ZM3,2H35a1,1,0,0,1,1,1V16H2V3A1,1,0,0,1,3,2Z" fill="#ffffff" data-original="#000000"/><path d="M3,60H31.841a5,5,0,0,0,2.576-.714l2.614-1.571a2,2,0,0,0,0-3.43l-2.614-1.571A5,5,0,0,0,31.841,52H3a3,3,0,0,0-3,3v2A3,3,0,0,0,3,60Zm6-2V54H29v4Zm24.386-3.571L36,56l-2.614,1.571A2.991,2.991,0,0,1,31.841,58H31V54h.841A2.991,2.991,0,0,1,33.386,54.429ZM2,55a1,1,0,0,1,1-1H7v4H3a1,1,0,0,1-1-1Z" fill="#ffffff" data-original="#000000"/><path d="M9,14A5,5,0,1,0,4,9,5.006,5.006,0,0,0,9,14ZM9,6A3,3,0,1,1,6,9,3,3,0,0,1,9,6Z" fill="#ffffff" data-original="#000000"/><path d="M48,16a4,4,0,1,0,4,4A4,4,0,0,0,48,16Zm0,6a2,2,0,1,1,2-2A2,2,0,0,1,48,22Z" fill="#ffffff" data-original="#000000"/><path d="M57,0H43a3,3,0,0,0-3,3V25a3,3,0,0,0,3,3H57a3,3,0,0,0,3-3V3A3,3,0,0,0,57,0Zm1,25a1,1,0,0,1-1,1H43a1,1,0,0,1-1-1V3a1,1,0,0,1,1-1H57a1,1,0,0,1,1,1Z" fill="#ffffff" data-original="#000000"/><path d="M57,32H43a3,3,0,0,0-3,3V57a3,3,0,0,0,3,3H57a3,3,0,0,0,3-3V35A3,3,0,0,0,57,32ZM42,56.447V35.553l8.535,9.265a1.752,1.752,0,0,1,0,2.365ZM58,57a1,1,0,0,1-1,1H43.289L52,48.539a3.761,3.761,0,0,0,0-5.077L43.289,34H57a1,1,0,0,1,1,1Z" fill="#ffffff" data-original="#000000"/><path d="M17,6H32a1,1,0,0,0,0-2H17a1,1,0,0,0,0,2Z" fill="#ffffff" data-original="#000000"/><path d="M17,10h5a1,1,0,0,0,0-2H17a1,1,0,0,0,0,2Z" fill="#ffffff" data-original="#000000"/><path d="M17,14h8a1,1,0,0,0,0-2H17a1,1,0,0,0,0,2Z" fill="#ffffff" data-original="#000000"/><path d="M31,22a1,1,0,0,0-1-1H8a1,1,0,0,0,0,2H30A1,1,0,0,0,31,22Z" fill="#ffffff" data-original="#000000"/><path d="M28,26,10,26a1,1,0,1,0,0,2l18,0a1,1,0,0,0,0-2Z" fill="#ffffff" data-original="#000000"/><path d="M28,30,10,30a1,1,0,0,0,0,2l18,0a1,1,0,1,0,0-2Z" fill="#ffffff" data-original="#000000"/><path d="M28,34,10,34a1,1,0,0,0,0,2l18,0a1,1,0,0,0,0-2Z" fill="#ffffff" data-original="#000000"/><path d="M29,39a1,1,0,0,0-1-1L10,38a1,1,0,0,0,0,2l18,0A1,1,0,0,0,29,39Z" fill="#ffffff" data-original="#000000"/><path d="M45,14a1,1,0,0,0,1-1V5a1,1,0,0,0-2,0v8A1,1,0,0,0,45,14Z" fill="#ffffff" data-original="#000000"/><path d="M49,14a1,1,0,0,0,1-1V10a1,1,0,0,0-2,0v3A1,1,0,0,0,49,14Z" fill="#ffffff" data-original="#000000"/><path d="M53,7a1,1,0,0,0-1,1v5a1,1,0,0,0,2,0V8A1,1,0,0,0,53,7Z" fill="#ffffff" data-original="#000000"/></g></svg>
