<?xml version="1.0" encoding="UTF-8"?><svg id="_Ñëîé_1" xmlns="http://www.w3.org/2000/svg" xmlns:xlink="http://www.w3.org/1999/xlink" viewBox="0 0 296.7 310.6"><defs><radialGradient id="Gradiente_sem_nome_5" cx="147.3" cy="302.9" fx="147.3" fy="302.9" r="223.3" gradientTransform="translate(0 326) scale(1 -1)" gradientUnits="userSpaceOnUse"><stop offset="0" stop-color="#e39a65"/><stop offset=".5" stop-color="#a92ffb"/><stop offset=".6" stop-color="#881bfa"/><stop offset=".7" stop-color="#6507fa"/><stop offset=".8" stop-color="#0d0c6f"/></radialGradient><radialGradient id="Gradiente_sem_nome_6" cx="10.7" cy="123.6" fx="10.7" fy="123.6" r="244.2" gradientTransform="translate(0 326) scale(1 -1)" gradientUnits="userSpaceOnUse"><stop offset="0" stop-color="#e39a65"/><stop offset=".5" stop-color="#a92ffb"/><stop offset=".6" stop-color="#881bfa"/><stop offset=".7" stop-color="#6507fa"/><stop offset=".7" stop-color="#0d0c6f"/></radialGradient><radialGradient id="Gradiente_sem_nome_7" cx="33.2" cy="172.6" fx="33.2" fy="172.6" r="219" gradientTransform="translate(0 326) scale(1 -1)" gradientUnits="userSpaceOnUse"><stop offset="0" stop-color="#e39a65"/><stop offset=".5" stop-color="#a92ffb"/><stop offset=".6" stop-color="#881bfa"/><stop offset=".7" stop-color="#6507fa"/><stop offset="1" stop-color="#3919bb"/></radialGradient><radialGradient id="Gradiente_sem_nome_8" cx="87.7" cy="256.4" fx="87.7" fy="256.4" r="223.3" gradientTransform="translate(0 326) scale(1 -1)" gradientUnits="userSpaceOnUse"><stop offset="0" stop-color="#e39a65"/><stop offset=".5" stop-color="#a92ffb"/><stop offset=".6" stop-color="#881bfa"/><stop offset=".7" stop-color="#6507fa"/><stop offset="1" stop-color="#3919bb"/></radialGradient><linearGradient id="Gradiente_sem_nome_9" x1="112.3" y1="197.7" x2="291.2" y2="197.7" gradientTransform="translate(0 326) scale(1 -1)" gradientUnits="userSpaceOnUse"><stop offset="0" stop-color="#3919bb"/><stop offset="1" stop-color="#6507fa"/></linearGradient><radialGradient id="Gradiente_sem_nome_10" cx="6.2" cy="304.1" fx="6.2" fy="304.1" r="347.9" gradientTransform="translate(0 326) scale(1 -1)" gradientUnits="userSpaceOnUse"><stop offset="0" stop-color="#e39a65"/><stop offset=".5" stop-color="#a92ffb"/><stop offset=".6" stop-color="#881bfa"/><stop offset=".7" stop-color="#6507fa"/><stop offset="1" stop-color="#3919bb"/></radialGradient><radialGradient id="Gradiente_sem_nome_12" cx="-2.9" cy="235.9" fx="-2.9" fy="235.9" r="165.4" gradientTransform="translate(0 326) scale(1 -1)" gradientUnits="userSpaceOnUse"><stop offset="0" stop-color="#e39a65"/><stop offset=".2" stop-color="#a92ffb"/><stop offset=".4" stop-color="#3919bb"/><stop offset=".9" stop-color="#3919bb"/></radialGradient><linearGradient id="Gradiente_sem_nome_13" x1="0" y1="256.4" x2="59.3" y2="256.4" gradientTransform="translate(0 326) scale(1 -1)" gradientUnits="userSpaceOnUse"><stop offset="0" stop-color="#e39a65"/><stop offset=".2" stop-color="#a92ffb"/><stop offset=".6" stop-color="#3919bb"/></linearGradient><linearGradient id="Gradiente_sem_nome_14" x1="5.5" y1="259.4" x2="53.7" y2="259.4" gradientTransform="translate(0 326) scale(1 -1)" gradientUnits="userSpaceOnUse"><stop offset="0" stop-color="#4f1fec"/><stop offset="1" stop-color="#a92ffb"/></linearGradient><linearGradient id="Gradiente_sem_nome_15" x1="4.4" y1="259.4" x2="52.6" y2="259.4" gradientTransform="translate(0 326) scale(1 -1)" gradientUnits="userSpaceOnUse"><stop offset="0" stop-color="#4f1fec"/><stop offset="1" stop-color="#a92ffb"/></linearGradient><linearGradient id="Gradiente_sem_nome_16" x1="5.5" y1="265.7" x2="66.3" y2="265.7" gradientTransform="translate(0 326) scale(1 -1)" gradientUnits="userSpaceOnUse"><stop offset="0" stop-color="#131060"/><stop offset=".2" stop-color="#140f62"/><stop offset=".3" stop-color="#190f6a"/><stop offset=".4" stop-color="#220f77"/><stop offset=".4" stop-color="#2e0f8a"/><stop offset=".5" stop-color="#3d0ea3"/><stop offset=".5" stop-color="#510ec1"/><stop offset=".6" stop-color="#670de5"/><stop offset=".6" stop-color="#740df8"/><stop offset=".6" stop-color="#7a14ef"/><stop offset=".7" stop-color="#9b3bc2"/><stop offset=".8" stop-color="#b75c9d"/><stop offset=".8" stop-color="#cc7680"/><stop offset=".9" stop-color="#db886b"/><stop offset=".9" stop-color="#e4935f"/><stop offset="1" stop-color="#e8975b"/></linearGradient><radialGradient id="Gradiente_sem_nome_17" cx="-7.4" cy="273.1" fx="-7.4" fy="273.1" r="108.2" gradientTransform="translate(0 326) scale(1 -1)" gradientUnits="userSpaceOnUse"><stop offset="0" stop-color="#e39a65"/><stop offset=".2" stop-color="#a92ffb"/><stop offset=".7" stop-color="#3919bb"/></radialGradient><linearGradient id="Gradiente_sem_nome_18" x1="25.8" y1="246.1" x2="34.2" y2="246.1" gradientTransform="translate(0 326) scale(1 -1)" gradientUnits="userSpaceOnUse"><stop offset="0" stop-color="#131060"/><stop offset=".2" stop-color="#140f62"/><stop offset=".3" stop-color="#190f6a"/><stop offset=".4" stop-color="#220f77"/><stop offset=".4" stop-color="#2e0f8a"/><stop offset=".5" stop-color="#3d0ea3"/><stop offset=".5" stop-color="#510ec1"/><stop offset=".6" stop-color="#670de5"/><stop offset=".6" stop-color="#740df8"/><stop offset=".6" stop-color="#7a14ef"/><stop offset=".7" stop-color="#9b3bc2"/><stop offset=".8" stop-color="#b75c9d"/><stop offset=".8" stop-color="#cc7680"/><stop offset=".9" stop-color="#db886b"/><stop offset=".9" stop-color="#e4935f"/><stop offset="1" stop-color="#e8975b"/></linearGradient></defs><g><path d="M154,309.7L9.5,226.4c-2.1-1.2-1.8-3.3,.6-4.7l92.7-53.5c2.4-1.4,6.1-1.6,8.2-.3l144.4,83.4c2.1,1.2,1.8,3.3-.6,4.7l-92.7,53.5c-2.4,1.4-6.1,1.6-8.2,.3h0Z" style="fill:#020230; isolation:isolate; opacity:.6;"/><path d="M293.8,111.3L150,28.3c-1-.6-2-.7-2.9-.4h0l-2.7,.9,.9,.2c-.4,.5-.7,1-.9,1.6l-32.5,105.6c-.8,2.6,.4,5.8,2.6,7.1l143.9,83.1c.4,.2,.7,.3,1.1,.4l-.4,.8,2.5-.9h0c1-.4,1.9-1.4,2.3-2.7l32.5-105.6c.8-2.6-.4-5.8-2.6-7.1h0Z" style="fill:url(#Gradiente_sem_nome_5);"/><path d="M253.2,230.4h0c0,0-142.1-82-142.1-82-2.1-1.2-5.7-1.1-8.2,.3L11.2,201.8l-3.1-1.2,.9,4.3h0c.1,.6,.6,1.2,1.4,1.7l143.4,82.8c2.1,1.2,5.7,1.1,8.2-.3l92-53.1c1.1-.7,1.8-1.5,2-2.3h0l.9-4.2-3.6,.9h0Z" style="fill:url(#Gradiente_sem_nome_6);"/><path d="M154,285.6L9.5,202.2c-2.1-1.2-1.8-3.3,.6-4.7l92.7-53.5c2.4-1.4,6.1-1.6,8.2-.3l144.4,83.4c2.1,1.2,1.8,3.3-.6,4.7l-92.7,53.5c-2.4,1.4-6.1,1.6-8.2,.3h0Z" style="fill:url(#Gradiente_sem_nome_7);"/><path d="M254.9,230.6l-92.7,53.5c-2.4,1.4-6.1,1.6-8.2,.3L9.5,201.1c-.7-.4-1.1-.9-1.3-1.5-.3,1,.1,1.9,1.3,2.6l144.4,83.4c2.1,1.2,5.8,1.1,8.2-.3l92.7-53.5c1.6-.9,2.2-2.2,1.9-3.2-.2,.8-.8,1.5-1.9,2.1h0Z" style="fill:#fff;"/><g style="opacity:.4;"><path d="M78.4,188.7l-4.9-2.8c-.4-.2-.3-.6,.1-.9l5.8-3.3c.4-.3,1.1-.3,1.5,0l4.9,2.8c.4,.2,.3,.6-.1,.9l-5.8,3.3c-.4,.3-1.1,.3-1.5,0Z" style="fill:#06033e;"/><path d="M86,193.1l-4.9-2.8c-.4-.2-.3-.6,.1-.9l5.8-3.3c.4-.3,1.1-.3,1.5,0l4.9,2.8c.4,.2,.3,.6-.1,.9l-5.8,3.3c-.4,.3-1.1,.3-1.5,0Z" style="fill:#06033e;"/><path d="M93.5,197.4l-4.9-2.8c-.4-.2-.3-.6,.1-.9l5.8-3.3c.4-.3,1.1-.3,1.5,0l4.9,2.8c.4,.2,.3,.6-.1,.9l-5.8,3.3c-.4,.3-1.1,.3-1.5,0Z" style="fill:#06033e;"/><path d="M103.9,193.8l-4.9-2.8c-.4-.2-.3-.6,.1-.9l4.8-2.8c.4-.3,1.1-.3,1.5,0l4.9,2.8c.4,.2,.3,.6-.1,.9l-4.8,2.8c-.4,.3-1.1,.3-1.5,0Z" style="fill:#06033e;"/><path d="M111.4,198.2l-4.9-2.8c-.4-.2-.3-.6,.1-.9l4.8-2.8c.4-.3,1.1-.3,1.5,0l4.9,2.8c.4,.2,.3,.6-.1,.9l-4.8,2.8c-.4,.3-1.1,.3-1.5,0Z" style="fill:#06033e;"/><path d="M119,202.5l-4.9-2.8c-.4-.2-.3-.6,.1-.9l4.8-2.8c.4-.3,1.1-.3,1.5,0l4.9,2.8c.4,.2,.3,.6-.1,.9l-4.8,2.8c-.4,.3-1.1,.3-1.5,0Z" style="fill:#06033e;"/><path d="M126.5,206.9l-4.9-2.8c-.4-.2-.3-.6,.1-.9l4.8-2.8c.4-.3,1.1-.3,1.5,0l4.9,2.8c.4,.2,.3,.6-.1,.9l-4.8,2.8c-.4,.3-1.1,.3-1.5,0Z" style="fill:#06033e;"/><path d="M134,211.2l-4.9-2.8c-.4-.2-.3-.6,.1-.9l4.8-2.8c.4-.3,1.1-.3,1.5,0l4.9,2.8c.4,.2,.3,.6-.1,.9l-4.8,2.8c-.4,.3-1.1,.3-1.5,0Z" style="fill:#06033e;"/><path d="M141.5,215.6l-4.9-2.8c-.4-.2-.3-.6,.1-.9l4.8-2.8c.4-.3,1.1-.3,1.5,0l4.9,2.8c.4,.2,.3,.6-.1,.9l-4.8,2.8c-.4,.3-1.1,.3-1.5,0Z" style="fill:#06033e;"/><path d="M149.1,219.9l-4.9-2.8c-.4-.2-.3-.6,.1-.9l4.8-2.8c.4-.3,1.1-.3,1.5,0l4.9,2.8c.4,.2,.3,.6-.1,.9l-4.8,2.8c-.4,.3-1.1,.3-1.5,0Z" style="fill:#06033e;"/><path d="M156.6,224.2l-4.9-2.8c-.4-.2-.3-.6,.1-.9l4.8-2.8c.4-.3,1.1-.3,1.5,0l4.9,2.8c.4,.2,.3,.6-.1,.9l-4.8,2.8c-.4,.3-1.1,.3-1.5,0Z" style="fill:#06033e;"/><path d="M164.1,228.6l-4.9-2.8c-.4-.2-.3-.6,.1-.9l4.8-2.8c.4-.3,1.1-.3,1.5,0l4.9,2.8c.4,.2,.3,.6-.1,.9l-4.8,2.8c-.4,.3-1.1,.3-1.5,0Z" style="fill:#06033e;"/><path d="M171.7,232.9l-4.9-2.8c-.4-.2-.3-.6,.1-.9l4.8-2.8c.4-.3,1.1-.3,1.5,0l4.9,2.8c.4,.2,.3,.6-.1,.9l-4.8,2.8c-.4,.3-1.1,.3-1.5,0h0Z" style="fill:#06033e;"/><path d="M115,191.8l-4.9-2.8c-.4-.2-.3-.6,.1-.9l4.8-2.8c.4-.3,1.1-.3,1.5,0l4.9,2.8c.4,.2,.3,.6-.1,.9l-4.8,2.8c-.4,.3-1.1,.3-1.5,0Z" style="fill:#06033e;"/><path d="M107.3,187.3l-4.9-2.8c-.4-.2-.3-.6,.1-.9l4.8-2.8c.4-.3,1.1-.3,1.5,0l4.9,2.8c.4,.2,.3,.6-.1,.9l-4.8,2.8c-.4,.3-1.1,.3-1.5,0Z" style="fill:#06033e;"/><path d="M99.7,182.9l-10.5-6.1c-.4-.2-.3-.6,.1-.9l4.8-2.8c.4-.3,1.1-.3,1.5,0l10.5,6.1c.4,.2,.3,.6-.1,.9l-4.8,2.8c-.4,.3-1.1,.3-1.5,0Z" style="fill:#06033e;"/><path d="M105,177.5l-8.5-4.9c-.4-.2-.3-.6,.1-.9l4.8-2.8c.4-.3,1.1-.3,1.5,0l8.5,4.9c.4,.2,.3,.6-.1,.9l-4.8,2.8c-.4,.3-1.1,.3-1.5,0Z" style="fill:#06033e;"/><path d="M122.5,196.1l-4.9-2.8c-.4-.2-.3-.6,.1-.9l4.8-2.8c.4-.3,1.1-.3,1.5,0l4.9,2.8c.4,.2,.3,.6-.1,.9l-4.8,2.8c-.4,.3-1.1,.3-1.5,0Z" style="fill:#06033e;"/><path d="M130.1,200.4l-4.9-2.8c-.4-.2-.3-.6,.1-.9l4.8-2.8c.4-.3,1.1-.3,1.5,0l4.9,2.8c.4,.2,.3,.6-.1,.9l-4.8,2.8c-.4,.3-1.1,.3-1.5,0Z" style="fill:#06033e;"/><path d="M137.6,204.8l-4.9-2.8c-.4-.2-.3-.6,.1-.9l4.8-2.8c.4-.3,1.1-.3,1.5,0l4.9,2.8c.4,.2,.3,.6-.1,.9l-4.8,2.8c-.4,.3-1.1,.3-1.5,0Z" style="fill:#06033e;"/><path d="M145.1,209.1l-4.9-2.8c-.4-.2-.3-.6,.1-.9l4.8-2.8c.4-.3,1.1-.3,1.5,0l4.9,2.8c.4,.2,.3,.6-.1,.9l-4.8,2.8c-.4,.3-1.1,.3-1.5,0Z" style="fill:#06033e;"/><path d="M152.6,213.5l-4.9-2.8c-.4-.2-.3-.6,.1-.9l4.8-2.8c.4-.3,1.1-.3,1.5,0l4.9,2.8c.4,.2,.3,.6-.1,.9l-4.8,2.8c-.4,.3-1.1,.3-1.5,0Z" style="fill:#06033e;"/><path d="M160.2,217.8l-4.9-2.8c-.4-.2-.3-.6,.1-.9l4.8-2.8c.4-.3,1.1-.3,1.5,0l4.9,2.8c.4,.2,.3,.6-.1,.9l-4.8,2.8c-.4,.3-1.1,.3-1.5,0Z" style="fill:#06033e;"/><path d="M167.7,222.2l-4.9-2.8c-.4-.2-.3-.6,.1-.9l4.8-2.8c.4-.3,1.1-.3,1.5,0l4.9,2.8c.4,.2,.3,.6-.1,.9l-4.8,2.8c-.4,.3-1.1,.3-1.5,0Z" style="fill:#06033e;"/><path d="M175.2,226.5l-4.9-2.8c-.4-.2-.3-.6,.1-.9l4.8-2.8c.4-.3,1.1-.3,1.5,0l4.9,2.8c.4,.2,.3,.6-.1,.9l-4.8,2.8c-.4,.3-1.1,.3-1.5,0Z" style="fill:#06033e;"/><path d="M182.8,230.9l-4.9-2.8c-.4-.2-.3-.6,.1-.9l4.8-2.8c.5-.3,1.1-.3,1.5,0l4.9,2.8c.4,.2,.3,.6-.1,.9l-4.8,2.8c-.5,.3-1.1,.3-1.5,0h0Z" style="fill:#06033e;"/><path d="M196.2,238.6l-10.6-6.1c-.4-.2-.3-.6,.1-.9l4.8-2.8c.5-.3,1.1-.3,1.5,0l10.6,6.1c.4,.2,.3,.6-.1,.9l-4.8,2.8c-.5,.3-1.1,.3-1.5,0Z" style="fill:#06033e;"/><path d="M210.8,230.1l-9-5.2c-.4-.2-.3-.6,.1-.9l4.8-2.8c.5-.3,1.1-.3,1.5,0l9,5.2c.4,.2,.3,.6-.1,.9l-4.8,2.8c-.5,.3-1.1,.3-1.5,0Z" style="fill:#06033e;"/><path d="M135.7,195.2l-4.9-2.8c-.4-.2-.3-.6,.1-.9l4.8-2.8c.4-.3,1.1-.3,1.5,0l4.9,2.8c.4,.2,.3,.6-.1,.9l-4.8,2.8c-.4,.3-1.1,.3-1.5,0Z" style="fill:#06033e;"/><path d="M128,190.8l-4.9-2.8c-.4-.2-.3-.6,.1-.9l4.8-2.8c.4-.3,1.1-.3,1.5,0l4.9,2.8c.4,.2,.3,.6-.1,.9l-4.8,2.8c-.4,.3-1.1,.3-1.5,0Z" style="fill:#06033e;"/><path d="M120.3,186.3l-4.9-2.8c-.4-.2-.3-.6,.1-.9l4.8-2.8c.4-.3,1.1-.3,1.5,0l4.9,2.8c.4,.2,.3,.6-.1,.9l-4.8,2.8c-.4,.3-1.1,.3-1.5,0Z" style="fill:#06033e;"/><path d="M112.6,181.9l-4.9-2.8c-.4-.2-.3-.6,.1-.9l4.8-2.8c.4-.3,1.1-.3,1.5,0l4.9,2.8c.4,.2,.3,.6-.1,.9l-4.8,2.8c-.4,.3-1.1,.3-1.5,0Z" style="fill:#06033e;"/><path d="M143.2,199.6l-4.9-2.8c-.4-.2-.3-.6,.1-.9l4.8-2.8c.4-.3,1.1-.3,1.5,0l4.9,2.8c.4,.2,.3,.6-.1,.9l-4.8,2.8c-.4,.3-1.1,.3-1.5,0Z" style="fill:#06033e;"/><path d="M150.8,203.9l-4.9-2.8c-.4-.2-.3-.6,.1-.9l4.8-2.8c.4-.3,1.1-.3,1.5,0l4.9,2.8c.4,.2,.3,.6-.1,.9l-4.8,2.8c-.4,.3-1.1,.3-1.5,0Z" style="fill:#06033e;"/><path d="M158.3,208.3l-4.9-2.8c-.4-.2-.3-.6,.1-.9l4.8-2.8c.4-.3,1.1-.3,1.5,0l4.9,2.8c.4,.2,.3,.6-.1,.9l-4.8,2.8c-.4,.3-1.1,.3-1.5,0Z" style="fill:#06033e;"/><path d="M165.8,212.6l-4.9-2.8c-.4-.2-.3-.6,.1-.9l4.8-2.8c.4-.3,1.1-.3,1.5,0l4.9,2.8c.4,.2,.3,.6-.1,.9l-4.8,2.8c-.4,.3-1.1,.3-1.5,0Z" style="fill:#06033e;"/><path d="M173.4,217l-4.9-2.8c-.4-.2-.3-.6,.1-.9l4.8-2.8c.4-.3,1.1-.3,1.5,0l4.9,2.8c.4,.2,.3,.6-.1,.9l-4.8,2.8c-.4,.3-1.1,.3-1.5,0h0Z" style="fill:#06033e;"/><path d="M180.9,221.3l-4.9-2.8c-.4-.2-.3-.6,.1-.9l4.8-2.8c.5-.3,1.1-.3,1.5,0l4.9,2.8c.4,.2,.3,.6-.1,.9l-4.8,2.8c-.5,.3-1.1,.3-1.5,0h0Z" style="fill:#06033e;"/><path d="M188.4,225.7l-4.9-2.8c-.4-.2-.3-.6,.1-.9l4.8-2.8c.5-.3,1.1-.3,1.5,0l4.9,2.8c.4,.2,.3,.6-.1,.9l-4.8,2.8c-.5,.3-1.1,.3-1.5,0Z" style="fill:#06033e;"/><path d="M196,230l-4.9-2.8c-.4-.2-.3-.6,.1-.9l4.8-2.8c.5-.3,1.1-.3,1.5,0l4.9,2.8c.4,.2,.3,.6-.1,.9l-4.8,2.8c-.5,.3-1.1,.3-1.5,0Z" style="fill:#06033e;"/><path d="M203.5,234.4l-4.9-2.8c-.4-.2-.3-.6,.1-.9l4.8-2.8c.5-.3,1.1-.3,1.5,0l4.9,2.8c.4,.2,.3,.6-.1,.9l-4.8,2.8c-.5,.3-1.1,.3-1.5,0Z" style="fill:#06033e;"/><path d="M131.7,184.5l-4.9-2.8c-.4-.2-.3-.6,.1-.9l4.8-2.8c.4-.3,1.1-.3,1.5,0l4.9,2.8c.4,.2,.3,.6-.1,.9l-4.8,2.8c-.4,.3-1.1,.3-1.5,0Z" style="fill:#06033e;"/><path d="M124.3,180.2l-4.9-2.8c-.4-.2-.3-.6,.1-.9l4.8-2.8c.4-.3,1.1-.3,1.5,0l4.9,2.8c.4,.2,.3,.6-.1,.9l-4.8,2.8c-.4,.3-1.1,.3-1.5,0Z" style="fill:#06033e;"/><path d="M116.8,175.8l-4.9-2.8c-.4-.2-.3-.6,.1-.9l4.8-2.8c.4-.3,1.1-.3,1.5,0l4.9,2.8c.4,.2,.3,.6-.1,.9l-4.8,2.8c-.4,.3-1.1,.3-1.5,0Z" style="fill:#06033e;"/><path d="M109.3,171.5l-4.9-2.8c-.4-.2-.3-.6,.1-.9l4.8-2.8c.4-.3,1.1-.3,1.5,0l4.9,2.8c.4,.2,.3,.6-.1,.9l-4.8,2.8c-.4,.3-1.1,.3-1.5,0Z" style="fill:#06033e;"/><path d="M117,167.1l-4.9-2.8c-.4-.2-.3-.6,.1-.9l1.6-.9c.4-.3,1.1-.3,1.5,0l4.9,2.8c.4,.2,.3,.6-.1,.9l-1.6,.9c-.4,.3-1.1,.3-1.5,0Z" style="fill:#06033e;"/><path d="M126.7,172.7l-4.9-2.8c-.4-.2-.3-.6,.1-.9l1.6-.9c.4-.3,1.1-.3,1.5,0l4.9,2.8c.4,.2,.3,.6-.1,.9l-1.6,.9c-.4,.3-1.1,.3-1.5,0Z" style="fill:#06033e;"/><path d="M134.2,177l-4.9-2.8c-.4-.2-.3-.6,.1-.9l1.6-.9c.4-.3,1.1-.3,1.5,0l4.9,2.8c.4,.2,.3,.6-.1,.9l-1.6,.9c-.4,.3-1.1,.3-1.5,0Z" style="fill:#06033e;"/><path d="M141.7,181.3l-4.9-2.8c-.4-.2-.3-.6,.1-.9l1.6-.9c.4-.3,1.1-.3,1.5,0l4.9,2.8c.4,.2,.3,.6-.1,.9l-1.6,.9c-.4,.3-1.1,.3-1.5,0Z" style="fill:#06033e;"/><path d="M149.1,185.6l-4.9-2.8c-.4-.2-.3-.6,.1-.9l1.6-.9c.4-.3,1.1-.3,1.5,0l4.9,2.8c.4,.2,.3,.6-.1,.9l-1.6,.9c-.4,.3-1.1,.3-1.5,0Z" style="fill:#06033e;"/><path d="M190.8,209.7l-4.9-2.8c-.4-.2-.3-.6,.1-.9l1.6-.9c.5-.3,1.1-.3,1.5,0l4.9,2.8c.4,.2,.3,.6-.1,.9l-1.6,.9c-.5,.3-1.1,.3-1.5,0Z" style="fill:#06033e;"/><path d="M198.3,214l-4.9-2.8c-.4-.2-.3-.6,.1-.9l1.6-.9c.5-.3,1.1-.3,1.5,0l4.9,2.8c.4,.2,.3,.6-.1,.9l-1.6,.9c-.5,.3-1.1,.3-1.5,0Z" style="fill:#06033e;"/><path d="M205.7,218.3l-4.9-2.8c-.4-.2-.3-.6,.1-.9l1.6-.9c.5-.3,1.1-.3,1.5,0l4.9,2.8c.4,.2,.3,.6-.1,.9l-1.6,.9c-.5,.3-1.1,.3-1.5,0Z" style="fill:#06033e;"/><path d="M213.2,222.6l-4.9-2.8c-.4-.2-.3-.6,.1-.9l1.6-.9c.5-.3,1.1-.3,1.5,0l4.9,2.8c.4,.2,.3,.6-.1,.9l-1.6,.9c-.5,.3-1.1,.3-1.5,0Z" style="fill:#06033e;"/><path d="M139.3,188.8l-4.9-2.8c-.4-.2-.3-.6,.1-.9l4.8-2.8c.4-.3,1.1-.3,1.5,0l4.9,2.8c.4,.2,.3,.6-.1,.9l-4.8,2.8c-.4,.3-1.1,.3-1.5,0Z" style="fill:#06033e;"/><path d="M146.8,193.2l-4.9-2.8c-.4-.2-.3-.6,.1-.9l4.8-2.8c.4-.3,1.1-.3,1.5,0l4.9,2.8c.4,.2,.3,.6-.1,.9l-4.8,2.8c-.4,.3-1.1,.3-1.5,0Z" style="fill:#06033e;"/><path d="M154.3,197.5l-4.9-2.8c-.4-.2-.3-.6,.1-.9l4.8-2.8c.4-.3,1.1-.3,1.5,0l4.9,2.8c.4,.2,.3,.6-.1,.9l-4.8,2.8c-.4,.3-1.1,.3-1.5,0Z" style="fill:#06033e;"/><path d="M161.9,201.9l-4.9-2.8c-.4-.2-.3-.6,.1-.9l4.8-2.8c.4-.3,1.1-.3,1.5,0l4.9,2.8c.4,.2,.3,.6-.1,.9l-4.8,2.8c-.4,.3-1.1,.3-1.5,0Z" style="fill:#06033e;"/><path d="M169.4,206.2l-4.9-2.8c-.4-.2-.3-.6,.1-.9l4.8-2.8c.4-.3,1.1-.3,1.5,0l4.9,2.8c.4,.2,.3,.6-.1,.9l-4.8,2.8c-.4,.3-1.1,.3-1.5,0Z" style="fill:#06033e;"/><path d="M176.9,210.6l-4.9-2.8c-.4-.2-.3-.6,.1-.9l4.8-2.8c.4-.3,1.1-.3,1.5,0l4.9,2.8c.4,.2,.3,.6-.1,.9l-4.8,2.8c-.4,.3-1.1,.3-1.5,0h0Z" style="fill:#06033e;"/><path d="M184.5,214.9l-4.9-2.8c-.4-.2-.3-.6,.1-.9l4.8-2.8c.5-.3,1.1-.3,1.5,0l4.9,2.8c.4,.2,.3,.6-.1,.9l-4.8,2.8c-.5,.3-1.1,.3-1.5,0Z" style="fill:#06033e;"/><path d="M192,219.3l-4.9-2.8c-.4-.2-.3-.6,.1-.9l4.8-2.8c.5-.3,1.1-.3,1.5,0l4.9,2.8c.4,.2,.3,.6-.1,.9l-4.8,2.8c-.5,.3-1.1,.3-1.5,0Z" style="fill:#06033e;"/><path d="M199.5,223.6l-4.9-2.8c-.4-.2-.3-.6,.1-.9l4.8-2.8c.5-.3,1.1-.3,1.5,0l4.9,2.8c.4,.2,.3,.6-.1,.9l-4.8,2.8c-.5,.3-1.1,.3-1.5,0Z" style="fill:#06033e;"/><path d="M96.2,189.4l-14.4-8.3c-.4-.2-.3-.6,.1-.9l4.8-2.8c.4-.3,1.1-.3,1.5,0l14.4,8.3c.4,.2,.3,.6-.1,.9l-4.8,2.8c-.4,.3-1.1,.3-1.5,0Z" style="fill:#06033e;"/><path d="M188.7,242.8l-14.4-8.3c-.4-.2-.3-.6,.1-.9l4.8-2.8c.5-.3,1.1-.3,1.5,0l14.4,8.3c.4,.2,.3,.6-.1,.9l-4.8,2.8c-.5,.3-1.1,.3-1.5,0Z" style="fill:#06033e;"/><path d="M158.6,235l-4.9-2.8c-.4-.2-.3-.6,.1-.9l5.8-3.3c.4-.3,1.1-.3,1.5,0l4.9,2.8c.4,.2,.3,.6-.1,.9l-5.8,3.3c-.4,.3-1.1,.3-1.5,0Z" style="fill:#06033e;"/><path d="M103.9,203.4l-7.8-4.5c-.4-.2-.3-.6,.1-.9l5.8-3.3c.4-.3,1.1-.3,1.5,0l7.8,4.5c.4,.2,.3,.6-.1,.9l-5.8,3.3c-.4,.3-1.1,.3-1.5,0Z" style="fill:#06033e;"/><path d="M151.4,230.8l-7.8-4.5c-.4-.2-.3-.6,.1-.9l5.8-3.3c.4-.3,1.1-.3,1.5,0l7.8,4.5c.4,.2,.3,.6-.1,.9l-5.8,3.3c-.4,.3-1.1,.3-1.5,0Z" style="fill:#06033e;"/><path d="M114.8,209.7l-7.8-4.5c-.4-.2-.3-.6,.1-.9l5.8-3.3c.4-.3,1.1-.3,1.5,0l7.8,4.5c.4,.2,.3,.6-.1,.9l-5.8,3.3c-.4,.3-1.1,.3-1.5,0Z" style="fill:#06033e;"/><path d="M114.4,201l33.9,19.6c.4,.2,.4,.6,0,.9l-5.9,3.4c-.4,.2-1.1,.2-1.5,0l-33.9-19.6,7.4-4.3h0Z" style="fill:#06033e;"/><path d="M179.7,242.9l5.4,3.1c.3,.2,.3,.5,0,.7l-2.4,1.4c-.4,.2-.9,.2-1.2,0l-5.4-3.1c-.3-.2-.3-.5,0-.7l2.4-1.4c.4-.2,.9-.2,1.2,0Z" style="fill:#06033e;"/><path d="M172.1,238.5l5.4,3.1c.3,.2,.3,.5,0,.7l-2.4,1.4c-.4,.2-.9,.2-1.2,0l-5.4-3.1c-.3-.2-.3-.5,0-.7l2.4-1.4c.4-.2,.9-.2,1.2,0Z" style="fill:#06033e;"/><path d="M164.5,234.2l5.4,3.1c.3,.2,.3,.5,0,.7l-2.4,1.4c-.4,.2-.9,.2-1.2,0l-5.4-3.1c-.3-.2-.3-.5,0-.7l2.4-1.4c.4-.2,.9-.2,1.2,0Z" style="fill:#06033e;"/><path d="M176.2,236.1l5.4,3.1c.3,.2,.3,.5,0,.7l-2.4,1.4c-.4,.2-.9,.2-1.2,0l-5.4-3.1c-.3-.2-.3-.5,0-.7l2.4-1.4c.4-.2,.9-.2,1.2,0h0Z" style="fill:#06033e;"/></g><g style="opacity:.4;"><path d="M78.4,188.7l-4.9-2.8c-.4-.2-.3-.6,.1-.9l5.8-3.3c.4-.3,1.1-.3,1.5,0l4.9,2.8c.4,.2,.3,.6-.1,.9l-5.8,3.3c-.4,.3-1.1,.3-1.5,0Z" style="fill:#06033e;"/><path d="M86,193.1l-4.9-2.8c-.4-.2-.3-.6,.1-.9l5.8-3.3c.4-.3,1.1-.3,1.5,0l4.9,2.8c.4,.2,.3,.6-.1,.9l-5.8,3.3c-.4,.3-1.1,.3-1.5,0Z" style="fill:#06033e;"/><path d="M93.5,197.4l-4.9-2.8c-.4-.2-.3-.6,.1-.9l5.8-3.3c.4-.3,1.1-.3,1.5,0l4.9,2.8c.4,.2,.3,.6-.1,.9l-5.8,3.3c-.4,.3-1.1,.3-1.5,0Z" style="fill:#06033e;"/><path d="M103.9,193.8l-4.9-2.8c-.4-.2-.3-.6,.1-.9l4.8-2.8c.4-.3,1.1-.3,1.5,0l4.9,2.8c.4,.2,.3,.6-.1,.9l-4.8,2.8c-.4,.3-1.1,.3-1.5,0Z" style="fill:#06033e;"/><path d="M111.4,198.2l-4.9-2.8c-.4-.2-.3-.6,.1-.9l4.8-2.8c.4-.3,1.1-.3,1.5,0l4.9,2.8c.4,.2,.3,.6-.1,.9l-4.8,2.8c-.4,.3-1.1,.3-1.5,0Z" style="fill:#06033e;"/><path d="M119,202.5l-4.9-2.8c-.4-.2-.3-.6,.1-.9l4.8-2.8c.4-.3,1.1-.3,1.5,0l4.9,2.8c.4,.2,.3,.6-.1,.9l-4.8,2.8c-.4,.3-1.1,.3-1.5,0Z" style="fill:#06033e;"/><path d="M126.5,206.9l-4.9-2.8c-.4-.2-.3-.6,.1-.9l4.8-2.8c.4-.3,1.1-.3,1.5,0l4.9,2.8c.4,.2,.3,.6-.1,.9l-4.8,2.8c-.4,.3-1.1,.3-1.5,0Z" style="fill:#06033e;"/><path d="M134,211.2l-4.9-2.8c-.4-.2-.3-.6,.1-.9l4.8-2.8c.4-.3,1.1-.3,1.5,0l4.9,2.8c.4,.2,.3,.6-.1,.9l-4.8,2.8c-.4,.3-1.1,.3-1.5,0Z" style="fill:#06033e;"/><path d="M141.5,215.6l-4.9-2.8c-.4-.2-.3-.6,.1-.9l4.8-2.8c.4-.3,1.1-.3,1.5,0l4.9,2.8c.4,.2,.3,.6-.1,.9l-4.8,2.8c-.4,.3-1.1,.3-1.5,0Z" style="fill:#06033e;"/><path d="M149.1,219.9l-4.9-2.8c-.4-.2-.3-.6,.1-.9l4.8-2.8c.4-.3,1.1-.3,1.5,0l4.9,2.8c.4,.2,.3,.6-.1,.9l-4.8,2.8c-.4,.3-1.1,.3-1.5,0Z" style="fill:#06033e;"/><path d="M156.6,224.2l-4.9-2.8c-.4-.2-.3-.6,.1-.9l4.8-2.8c.4-.3,1.1-.3,1.5,0l4.9,2.8c.4,.2,.3,.6-.1,.9l-4.8,2.8c-.4,.3-1.1,.3-1.5,0Z" style="fill:#06033e;"/><path d="M164.1,228.6l-4.9-2.8c-.4-.2-.3-.6,.1-.9l4.8-2.8c.4-.3,1.1-.3,1.5,0l4.9,2.8c.4,.2,.3,.6-.1,.9l-4.8,2.8c-.4,.3-1.1,.3-1.5,0Z" style="fill:#06033e;"/><path d="M171.7,232.9l-4.9-2.8c-.4-.2-.3-.6,.1-.9l4.8-2.8c.4-.3,1.1-.3,1.5,0l4.9,2.8c.4,.2,.3,.6-.1,.9l-4.8,2.8c-.4,.3-1.1,.3-1.5,0h0Z" style="fill:#06033e;"/><path d="M115,191.8l-4.9-2.8c-.4-.2-.3-.6,.1-.9l4.8-2.8c.4-.3,1.1-.3,1.5,0l4.9,2.8c.4,.2,.3,.6-.1,.9l-4.8,2.8c-.4,.3-1.1,.3-1.5,0Z" style="fill:#06033e;"/><path d="M107.3,187.3l-4.9-2.8c-.4-.2-.3-.6,.1-.9l4.8-2.8c.4-.3,1.1-.3,1.5,0l4.9,2.8c.4,.2,.3,.6-.1,.9l-4.8,2.8c-.4,.3-1.1,.3-1.5,0Z" style="fill:#06033e;"/><path d="M99.7,182.9l-10.5-6.1c-.4-.2-.3-.6,.1-.9l4.8-2.8c.4-.3,1.1-.3,1.5,0l10.5,6.1c.4,.2,.3,.6-.1,.9l-4.8,2.8c-.4,.3-1.1,.3-1.5,0Z" style="fill:#06033e;"/><path d="M105,177.5l-8.5-4.9c-.4-.2-.3-.6,.1-.9l4.8-2.8c.4-.3,1.1-.3,1.5,0l8.5,4.9c.4,.2,.3,.6-.1,.9l-4.8,2.8c-.4,.3-1.1,.3-1.5,0Z" style="fill:#06033e;"/><path d="M122.5,196.1l-4.9-2.8c-.4-.2-.3-.6,.1-.9l4.8-2.8c.4-.3,1.1-.3,1.5,0l4.9,2.8c.4,.2,.3,.6-.1,.9l-4.8,2.8c-.4,.3-1.1,.3-1.5,0Z" style="fill:#06033e;"/><path d="M130.1,200.4l-4.9-2.8c-.4-.2-.3-.6,.1-.9l4.8-2.8c.4-.3,1.1-.3,1.5,0l4.9,2.8c.4,.2,.3,.6-.1,.9l-4.8,2.8c-.4,.3-1.1,.3-1.5,0Z" style="fill:#06033e;"/><path d="M137.6,204.8l-4.9-2.8c-.4-.2-.3-.6,.1-.9l4.8-2.8c.4-.3,1.1-.3,1.5,0l4.9,2.8c.4,.2,.3,.6-.1,.9l-4.8,2.8c-.4,.3-1.1,.3-1.5,0Z" style="fill:#06033e;"/><path d="M145.1,209.1l-4.9-2.8c-.4-.2-.3-.6,.1-.9l4.8-2.8c.4-.3,1.1-.3,1.5,0l4.9,2.8c.4,.2,.3,.6-.1,.9l-4.8,2.8c-.4,.3-1.1,.3-1.5,0Z" style="fill:#06033e;"/><path d="M152.6,213.5l-4.9-2.8c-.4-.2-.3-.6,.1-.9l4.8-2.8c.4-.3,1.1-.3,1.5,0l4.9,2.8c.4,.2,.3,.6-.1,.9l-4.8,2.8c-.4,.3-1.1,.3-1.5,0Z" style="fill:#06033e;"/><path d="M160.2,217.8l-4.9-2.8c-.4-.2-.3-.6,.1-.9l4.8-2.8c.4-.3,1.1-.3,1.5,0l4.9,2.8c.4,.2,.3,.6-.1,.9l-4.8,2.8c-.4,.3-1.1,.3-1.5,0Z" style="fill:#06033e;"/><path d="M167.7,222.2l-4.9-2.8c-.4-.2-.3-.6,.1-.9l4.8-2.8c.4-.3,1.1-.3,1.5,0l4.9,2.8c.4,.2,.3,.6-.1,.9l-4.8,2.8c-.4,.3-1.1,.3-1.5,0Z" style="fill:#06033e;"/><path d="M175.2,226.5l-4.9-2.8c-.4-.2-.3-.6,.1-.9l4.8-2.8c.4-.3,1.1-.3,1.5,0l4.9,2.8c.4,.2,.3,.6-.1,.9l-4.8,2.8c-.4,.3-1.1,.3-1.5,0Z" style="fill:#06033e;"/><path d="M182.8,230.9l-4.9-2.8c-.4-.2-.3-.6,.1-.9l4.8-2.8c.5-.3,1.1-.3,1.5,0l4.9,2.8c.4,.2,.3,.6-.1,.9l-4.8,2.8c-.5,.3-1.1,.3-1.5,0h0Z" style="fill:#06033e;"/><path d="M196.2,238.6l-10.6-6.1c-.4-.2-.3-.6,.1-.9l4.8-2.8c.5-.3,1.1-.3,1.5,0l10.6,6.1c.4,.2,.3,.6-.1,.9l-4.8,2.8c-.5,.3-1.1,.3-1.5,0Z" style="fill:#06033e;"/><path d="M210.8,230.1l-9-5.2c-.4-.2-.3-.6,.1-.9l4.8-2.8c.5-.3,1.1-.3,1.5,0l9,5.2c.4,.2,.3,.6-.1,.9l-4.8,2.8c-.5,.3-1.1,.3-1.5,0Z" style="fill:#06033e;"/><path d="M135.7,195.2l-4.9-2.8c-.4-.2-.3-.6,.1-.9l4.8-2.8c.4-.3,1.1-.3,1.5,0l4.9,2.8c.4,.2,.3,.6-.1,.9l-4.8,2.8c-.4,.3-1.1,.3-1.5,0Z" style="fill:#06033e;"/><path d="M128,190.8l-4.9-2.8c-.4-.2-.3-.6,.1-.9l4.8-2.8c.4-.3,1.1-.3,1.5,0l4.9,2.8c.4,.2,.3,.6-.1,.9l-4.8,2.8c-.4,.3-1.1,.3-1.5,0Z" style="fill:#06033e;"/><path d="M120.3,186.3l-4.9-2.8c-.4-.2-.3-.6,.1-.9l4.8-2.8c.4-.3,1.1-.3,1.5,0l4.9,2.8c.4,.2,.3,.6-.1,.9l-4.8,2.8c-.4,.3-1.1,.3-1.5,0Z" style="fill:#06033e;"/><path d="M112.6,181.9l-4.9-2.8c-.4-.2-.3-.6,.1-.9l4.8-2.8c.4-.3,1.1-.3,1.5,0l4.9,2.8c.4,.2,.3,.6-.1,.9l-4.8,2.8c-.4,.3-1.1,.3-1.5,0Z" style="fill:#06033e;"/><path d="M143.2,199.6l-4.9-2.8c-.4-.2-.3-.6,.1-.9l4.8-2.8c.4-.3,1.1-.3,1.5,0l4.9,2.8c.4,.2,.3,.6-.1,.9l-4.8,2.8c-.4,.3-1.1,.3-1.5,0Z" style="fill:#06033e;"/><path d="M150.8,203.9l-4.9-2.8c-.4-.2-.3-.6,.1-.9l4.8-2.8c.4-.3,1.1-.3,1.5,0l4.9,2.8c.4,.2,.3,.6-.1,.9l-4.8,2.8c-.4,.3-1.1,.3-1.5,0Z" style="fill:#06033e;"/><path d="M158.3,208.3l-4.9-2.8c-.4-.2-.3-.6,.1-.9l4.8-2.8c.4-.3,1.1-.3,1.5,0l4.9,2.8c.4,.2,.3,.6-.1,.9l-4.8,2.8c-.4,.3-1.1,.3-1.5,0Z" style="fill:#06033e;"/><path d="M165.8,212.6l-4.9-2.8c-.4-.2-.3-.6,.1-.9l4.8-2.8c.4-.3,1.1-.3,1.5,0l4.9,2.8c.4,.2,.3,.6-.1,.9l-4.8,2.8c-.4,.3-1.1,.3-1.5,0Z" style="fill:#06033e;"/><path d="M173.4,217l-4.9-2.8c-.4-.2-.3-.6,.1-.9l4.8-2.8c.4-.3,1.1-.3,1.5,0l4.9,2.8c.4,.2,.3,.6-.1,.9l-4.8,2.8c-.4,.3-1.1,.3-1.5,0h0Z" style="fill:#06033e;"/><path d="M180.9,221.3l-4.9-2.8c-.4-.2-.3-.6,.1-.9l4.8-2.8c.5-.3,1.1-.3,1.5,0l4.9,2.8c.4,.2,.3,.6-.1,.9l-4.8,2.8c-.5,.3-1.1,.3-1.5,0h0Z" style="fill:#06033e;"/><path d="M188.4,225.7l-4.9-2.8c-.4-.2-.3-.6,.1-.9l4.8-2.8c.5-.3,1.1-.3,1.5,0l4.9,2.8c.4,.2,.3,.6-.1,.9l-4.8,2.8c-.5,.3-1.1,.3-1.5,0Z" style="fill:#06033e;"/><path d="M196,230l-4.9-2.8c-.4-.2-.3-.6,.1-.9l4.8-2.8c.5-.3,1.1-.3,1.5,0l4.9,2.8c.4,.2,.3,.6-.1,.9l-4.8,2.8c-.5,.3-1.1,.3-1.5,0Z" style="fill:#06033e;"/><path d="M203.5,234.4l-4.9-2.8c-.4-.2-.3-.6,.1-.9l4.8-2.8c.5-.3,1.1-.3,1.5,0l4.9,2.8c.4,.2,.3,.6-.1,.9l-4.8,2.8c-.5,.3-1.1,.3-1.5,0Z" style="fill:#06033e;"/><path d="M131.7,184.5l-4.9-2.8c-.4-.2-.3-.6,.1-.9l4.8-2.8c.4-.3,1.1-.3,1.5,0l4.9,2.8c.4,.2,.3,.6-.1,.9l-4.8,2.8c-.4,.3-1.1,.3-1.5,0Z" style="fill:#06033e;"/><path d="M124.3,180.2l-4.9-2.8c-.4-.2-.3-.6,.1-.9l4.8-2.8c.4-.3,1.1-.3,1.5,0l4.9,2.8c.4,.2,.3,.6-.1,.9l-4.8,2.8c-.4,.3-1.1,.3-1.5,0Z" style="fill:#06033e;"/><path d="M116.8,175.8l-4.9-2.8c-.4-.2-.3-.6,.1-.9l4.8-2.8c.4-.3,1.1-.3,1.5,0l4.9,2.8c.4,.2,.3,.6-.1,.9l-4.8,2.8c-.4,.3-1.1,.3-1.5,0Z" style="fill:#06033e;"/><path d="M109.3,171.5l-4.9-2.8c-.4-.2-.3-.6,.1-.9l4.8-2.8c.4-.3,1.1-.3,1.5,0l4.9,2.8c.4,.2,.3,.6-.1,.9l-4.8,2.8c-.4,.3-1.1,.3-1.5,0Z" style="fill:#06033e;"/><path d="M117,167.1l-4.9-2.8c-.4-.2-.3-.6,.1-.9,.8-.4,2.2-1.6,3.1-1,0,0,4.9,2.8,4.9,2.8,.4,.2,.3,.6-.1,.9l-1.6,.9c-.4,.3-1.1,.3-1.5,0Z" style="fill:#06033e;"/><path d="M126.7,172.7l-4.9-2.8c-.4-.2-.3-.6,.1-.9,.8-.4,2.2-1.6,3.1-1,0,0,4.9,2.8,4.9,2.8,.4,.2,.3,.6-.1,.9l-1.6,.9c-.4,.3-1.1,.3-1.5,0Z" style="fill:#06033e;"/><path d="M134.2,177l-4.9-2.8c-.4-.2-.3-.6,.1-.9,.8-.4,2.2-1.6,3.1-1,0,0,4.9,2.8,4.9,2.8,.4,.2,.3,.6-.1,.9l-1.6,.9c-.4,.3-1.1,.3-1.5,0Z" style="fill:#06033e;"/><path d="M141.7,181.3l-4.9-2.8c-.4-.2-.3-.6,.1-.9,.8-.4,2.2-1.6,3.1-1,0,0,4.9,2.8,4.9,2.8,.4,.2,.3,.6-.1,.9l-1.6,.9c-.4,.3-1.1,.3-1.5,0Z" style="fill:#06033e;"/><path d="M149.1,185.6l-4.9-2.8c-.4-.2-.3-.6,.1-.9,.8-.4,2.2-1.6,3.1-1,0,0,4.9,2.8,4.9,2.8,.4,.2,.3,.6-.1,.9l-1.6,.9c-.4,.3-1.1,.3-1.5,0Z" style="fill:#06033e;"/><path d="M190.8,209.7l-4.9-2.8c-.4-.2-.3-.6,.1-.9,.8-.4,2.2-1.6,3.1-1,0,0,4.9,2.8,4.9,2.8,.4,.2,.3,.6-.1,.9l-1.6,.9c-.5,.3-1.1,.3-1.5,0Z" style="fill:#06033e;"/><path d="M198.3,214l-4.9-2.8c-.4-.2-.3-.6,.1-.9,.8-.4,2.2-1.6,3.1-1,0,0,4.9,2.8,4.9,2.8,.4,.2,.3,.6-.1,.9l-1.6,.9c-.5,.3-1.1,.3-1.5,0Z" style="fill:#06033e;"/><path d="M205.7,218.3l-4.9-2.8c-.4-.2-.3-.6,.1-.9,.8-.4,2.2-1.6,3.1-1,0,0,4.9,2.8,4.9,2.8,.4,.2,.3,.6-.1,.9l-1.6,.9c-.5,.3-1.1,.3-1.5,0Z" style="fill:#06033e;"/><path d="M213.2,222.6l-4.9-2.8c-.4-.2-.3-.6,.1-.9,.8-.4,2.2-1.6,3.1-1,0,0,4.9,2.8,4.9,2.8,.4,.2,.3,.6-.1,.9l-1.6,.9c-.5,.3-1.1,.3-1.5,0Z" style="fill:#06033e;"/><path d="M139.3,188.8l-4.9-2.8c-.4-.2-.3-.6,.1-.9l4.8-2.8c.4-.3,1.1-.3,1.5,0l4.9,2.8c.4,.2,.3,.6-.1,.9l-4.8,2.8c-.4,.3-1.1,.3-1.5,0Z" style="fill:#06033e;"/><path d="M146.8,193.2l-4.9-2.8c-.4-.2-.3-.6,.1-.9l4.8-2.8c.4-.3,1.1-.3,1.5,0l4.9,2.8c.4,.2,.3,.6-.1,.9l-4.8,2.8c-.4,.3-1.1,.3-1.5,0Z" style="fill:#06033e;"/><path d="M154.3,197.5l-4.9-2.8c-.4-.2-.3-.6,.1-.9l4.8-2.8c.4-.3,1.1-.3,1.5,0l4.9,2.8c.4,.2,.3,.6-.1,.9l-4.8,2.8c-.4,.3-1.1,.3-1.5,0Z" style="fill:#06033e;"/><path d="M161.9,201.9l-4.9-2.8c-.4-.2-.3-.6,.1-.9l4.8-2.8c.4-.3,1.1-.3,1.5,0l4.9,2.8c.4,.2,.3,.6-.1,.9l-4.8,2.8c-.4,.3-1.1,.3-1.5,0Z" style="fill:#06033e;"/><path d="M169.4,206.2l-4.9-2.8c-.4-.2-.3-.6,.1-.9l4.8-2.8c.4-.3,1.1-.3,1.5,0l4.9,2.8c.4,.2,.3,.6-.1,.9l-4.8,2.8c-.4,.3-1.1,.3-1.5,0Z" style="fill:#06033e;"/><path d="M176.9,210.6l-4.9-2.8c-.4-.2-.3-.6,.1-.9l4.8-2.8c.4-.3,1.1-.3,1.5,0l4.9,2.8c.4,.2,.3,.6-.1,.9l-4.8,2.8c-.4,.3-1.1,.3-1.5,0h0Z" style="fill:#06033e;"/><path d="M184.5,214.9l-4.9-2.8c-.4-.2-.3-.6,.1-.9l4.8-2.8c.5-.3,1.1-.3,1.5,0l4.9,2.8c.4,.2,.3,.6-.1,.9l-4.8,2.8c-.5,.3-1.1,.3-1.5,0Z" style="fill:#06033e;"/><path d="M192,219.3l-4.9-2.8c-.4-.2-.3-.6,.1-.9l4.8-2.8c.5-.3,1.1-.3,1.5,0l4.9,2.8c.4,.2,.3,.6-.1,.9l-4.8,2.8c-.5,.3-1.1,.3-1.5,0Z" style="fill:#06033e;"/><path d="M199.5,223.6l-4.9-2.8c-.4-.2-.3-.6,.1-.9l4.8-2.8c.5-.3,1.1-.3,1.5,0l4.9,2.8c.4,.2,.3,.6-.1,.9l-4.8,2.8c-.5,.3-1.1,.3-1.5,0Z" style="fill:#06033e;"/><path d="M96.2,189.4l-14.4-8.3c-.4-.2-.3-.6,.1-.9l4.8-2.8c.4-.3,1.1-.3,1.5,0l14.4,8.3c.4,.2,.3,.6-.1,.9l-4.8,2.8c-.4,.3-1.1,.3-1.5,0Z" style="fill:#06033e;"/><path d="M188.7,242.8l-14.4-8.3c-.4-.2-.3-.6,.1-.9l4.8-2.8c.5-.3,1.1-.3,1.5,0l14.4,8.3c.4,.2,.3,.6-.1,.9l-4.8,2.8c-.5,.3-1.1,.3-1.5,0Z" style="fill:#06033e;"/><path d="M158.6,235l-4.9-2.8c-.4-.2-.3-.6,.1-.9l5.8-3.3c.4-.3,1.1-.3,1.5,0l4.9,2.8c.4,.2,.3,.6-.1,.9l-5.8,3.3c-.4,.3-1.1,.3-1.5,0Z" style="fill:#06033e;"/><path d="M103.9,203.4l-7.8-4.5c-.4-.2-.3-.6,.1-.9l5.8-3.3c.4-.3,1.1-.3,1.5,0l7.8,4.5c.4,.2,.3,.6-.1,.9l-5.8,3.3c-.4,.3-1.1,.3-1.5,0Z" style="fill:#06033e;"/><path d="M151.4,230.8l-7.8-4.5c-.4-.2-.3-.6,.1-.9l5.8-3.3c.4-.3,1.1-.3,1.5,0l7.8,4.5c.4,.2,.3,.6-.1,.9l-5.8,3.3c-.4,.3-1.1,.3-1.5,0Z" style="fill:#06033e;"/><path d="M114.8,209.7l-7.8-4.5c-.4-.2-.3-.6,.1-.9l5.8-3.3c.4-.3,1.1-.3,1.5,0l7.8,4.5c.4,.2,.3,.6-.1,.9l-5.8,3.3c-.4,.3-1.1,.3-1.5,0Z" style="fill:#06033e;"/><path d="M114.4,201l33.9,19.6c.4,.2,.4,.6,0,.9l-5.9,3.4c-.4,.2-1.1,.2-1.5,0l-33.9-19.6,7.4-4.3h0Z" style="fill:#06033e;"/><path d="M179.7,242.9l5.4,3.1c.3,.2,.3,.5,0,.7l-2.4,1.4c-.4,.2-.9,.2-1.2,0l-5.4-3.1c-.3-.2-.3-.5,0-.7l2.4-1.4c.4-.2,.9-.2,1.2,0Z" style="fill:#06033e;"/><path d="M172.1,238.5l5.4,3.1c.3,.2,.3,.5,0,.7l-2.4,1.4c-.4,.2-.9,.2-1.2,0l-5.4-3.1c-.3-.2-.3-.5,0-.7l2.4-1.4c.4-.2,.9-.2,1.2,0Z" style="fill:#06033e;"/><path d="M164.5,234.2l5.4,3.1c.3,.2,.3,.5,0,.7l-2.4,1.4c-.4,.2-.9,.2-1.2,0l-5.4-3.1c-.3-.2-.3-.5,0-.7l2.4-1.4c.4-.2,.9-.2,1.2,0Z" style="fill:#06033e;"/><path d="M176.2,236.1l5.4,3.1c.3,.2,.3,.5,0,.7l-2.4,1.4c-.4,.2-.9,.2-1.2,0l-5.4-3.1c-.3-.2-.3-.5,0-.7l2.4-1.4c.4-.2,.9-.2,1.2,0h0Z" style="fill:#06033e;"/></g><path d="M255.9,227.3L112.1,144.2c-2.3-1.3-3.4-4.5-2.6-7.1L142,31.5c.8-2.6,3.3-3.7,5.6-2.4l143.9,83.1c2.3,1.3,3.4,4.5,2.6,7.1l-32.5,105.6c-.8,2.6-3.3,3.7-5.6,2.4h0Z" style="fill:url(#Gradiente_sem_nome_8);"/><path d="M254.6,223.6L115,143c-2.2-1.2-3.3-4.3-2.5-6.8l31.1-101c.8-2.5,3.1-3.5,5.3-2.3l139.5,80.6c2.2,1.2,3.3,4.3,2.5,6.8l-31.1,101c-.8,2.5-3.1,3.5-5.3,2.3h0Z" style="fill:url(#Gradiente_sem_nome_9);"/><path d="M254.6,223.6L115,143c-2.2-1.2-3.3-4.3-2.5-6.8l31.1-101c.8-2.5,3.1-3.5,5.3-2.3l139.5,80.6c2.2,1.2,3.3,4.3,2.5,6.8l-31.1,101c-.8,2.5-3.1,3.5-5.3,2.3h0Z" style="fill:#06033e; isolation:isolate; opacity:.4;"/><path d="M254.6,223.6L115,143c-2.2-1.2-3.3-4.3-2.5-6.8l31.1-101c.8-2.5,3.1-3.5,5.3-2.3l139.5,80.6c2.2,1.2,3.3,4.3,2.5,6.8l-31.1,101c-.8,2.5-3.1,3.5-5.3,2.3h0Z" style="fill:#06033e; isolation:isolate; opacity:.4;"/><path d="M247.1,192.8l-94.5-54.5c-1.5-.9-2.3-2.9-1.7-4.7l21.4-69.4c.5-1.7,2.2-2.4,3.6-1.6l94.5,54.5c1.5,.9,2.3,2.9,1.7,4.7l-21.4,69.4c-.5,1.7-2.2,2.4-3.6,1.6h0Z" style="fill:#06033e; isolation:isolate; opacity:.5;"/><path d="M234.3,194.4l-94.5-54.5c-1.5-.9-2.3-2.9-1.7-4.7l21.4-69.4c.5-1.7,2.2-2.4,3.6-1.6l94.5,54.5c1.5,.9,2.3,2.9,1.7,4.7l-21.4,69.4c-.5,1.7-2.2,2.4-3.6,1.6h0Z" style="fill:url(#Gradiente_sem_nome_10);"/><g style="opacity:.5;"><path d="M234.3,194.4l-94.5-54.5c-1.5-.9-2.3-2.9-1.7-4.7l21.4-69.4c.5-1.7,2.2-2.4,3.6-1.6l94.5,54.5c1.5,.9,2.3,2.9,1.7,4.7l-21.4,69.4c-.5,1.7-2.2,2.4-3.6,1.6h0Z" style="fill:#06033e;"/></g><path d="M257.6,118.8l-94.5-54.5c-.9-.5-1.9-.5-2.7,0,.4,0,.9,0,1.4,.3l94.5,54.5c1.5,.9,2.3,2.9,1.7,4.7l-21.4,69.4c-.2,.6-.5,1.1-1,1.5,1,0,1.9-.7,2.3-1.9l21.4-69.4c.5-1.7-.2-3.8-1.7-4.7h0Z" style="fill:#fff;"/><path d="M115.2,251.1c-1.3,0-2.6-.3-3.5-.8h0l-37.9-21.9c-1-.6-1.6-1.4-1.6-2.3s.8-2.1,2.1-2.9l19.5-11.2c2.4-1.4,5.9-1.5,8-.3l37.8,21.9c1,.6,1.6,1.4,1.6,2.3,0,1.1-.8,2.1-2.1,2.9l-19.5,11.2c-1.3,.8-2.9,1.1-4.5,1.1h0Zm-16.9-39.2c-1.4,0-2.8,.3-3.9,1l-19.5,11.2c-1,.6-1.5,1.3-1.5,1.9s.6,1.1,1,1.4l37.9,21.9c1.7,1,4.9,.9,6.9-.3l19.5-11.2c1-.6,1.5-1.3,1.5-1.9s-.6-1.1-1-1.4l-37.8-21.9c-.8-.4-1.8-.7-2.9-.7h0Z" style="fill:#06033e; isolation:isolate; opacity:.4;"/></g><g><g><path d="M186.1,100.7l-5.8-3.4c-.5-.3-.8-1.1-.6-1.7h0c.2-.6,.8-.9,1.3-.6l5.8,3.4c.5,.3,.8,1.1,.6,1.7h0c-.2,.6-.8,.9-1.3,.6Z" style="fill:#fff;"/><path d="M200,108.7l-8.6-5c-.5-.3-.8-1.1-.6-1.7h0c.2-.6,.8-.9,1.3-.6l8.6,5c.5,.3,.8,1.1,.6,1.7h0c-.2,.6-.8,.9-1.3,.6Z" style="fill:#fff;"/><path d="M174.4,126.7l-5.8-3.4c-.5-.3-.8-1.1-.6-1.7h0c.2-.6,.8-.9,1.3-.6l5.8,3.4c.5,.3,.8,1.1,.6,1.7h0c-.2,.6-.8,.9-1.3,.6Z" style="fill:#fff;"/><path d="M186.8,133.9l-8.6-5c-.5-.3-.8-1.1-.6-1.7h0c.2-.6,.8-.9,1.3-.6l8.6,5c.5,.3,.8,1.1,.6,1.7h0c-.2,.6-.8,.9-1.3,.6h0Z" style="fill:#fff;"/><path d="M168.6,96.1l-3.6-2.1c-.5-.3-.8-1.1-.6-1.7h0c.2-.6,.8-.9,1.3-.6l3.6,2.1c.5,.3,.8,1.1,.6,1.7h0c-.2,.6-.8,.9-1.3,.6Z" style="fill:#fff;"/><path d="M179.6,107.9l-11.1-6.4c-.5-.3-.8-1.1-.6-1.7h0c.2-.6,.8-.9,1.3-.6l11.1,6.4c.5,.3,.8,1.1,.6,1.7h0c-.2,.6-.8,.9-1.3,.6Z" style="fill:#fff;"/><path d="M169.3,112.9l-3.6-2.1c-.5-.3-.8-1.1-.6-1.7h0c.2-.6,.8-.9,1.3-.6l3.6,2.1c.5,.3,.8,1.1,.6,1.7h0c-.2,.6-.8,.9-1.3,.6Z" style="fill:#fff;"/><path d="M188.1,145.6l-9.7-5.6c-.5-.3-.8-1.1-.6-1.7h0c.2-.6,.8-.9,1.3-.6l9.7,5.6c.5,.3,.8,1.1,.6,1.7h0c-.2,.6-.8,.9-1.3,.6Z" style="fill:#fff;"/><path d="M165.2,121.4l-2.3-1.3c-.5-.3-.8-1.1-.6-1.7h0c.2-.6,.8-.9,1.3-.6l2.3,1.3c.5,.3,.8,1.1,.6,1.7h0c-.2,.6-.8,.9-1.3,.6Z" style="fill:#fff;"/><path d="M163,131.1l-2.9-1.7c-.5-.3-.8-1.1-.6-1.7h0c.2-.6,.8-.9,1.3-.6l2.9,1.7c.5,.3,.8,1.1,.6,1.7h0c-.2,.6-.8,.9-1.3,.6Z" style="fill:#fff;"/><path d="M174.3,137.6l-7.7-4.4c-.5-.3-.8-1.1-.6-1.7h0c.2-.6,.8-.9,1.3-.6l7.7,4.4c.5,.3,.8,1.1,.6,1.7h0c-.2,.6-.8,.9-1.3,.6Z" style="fill:#fff;"/><path d="M164.2,137.2l-5.5-3.2c-.5-.3-.8-1.1-.6-1.7h0c.2-.6,.8-.9,1.3-.6l5.5,3.2c.5,.3,.8,1.1,.6,1.7h0c-.2,.6-.8,.9-1.3,.6Z" style="fill:#fff;"/><path d="M196.5,150.4l-3.5-2c-.5-.3-.8-1.1-.6-1.7h0c.2-.6,.8-.9,1.3-.6l3.5,2c.5,.3,.8,1.1,.6,1.7h0c-.2,.6-.8,.9-1.3,.6Z" style="fill:#fff;"/><path d="M182.9,120.7l-9.7-5.6c-.5-.3-.8-1.1-.6-1.7h0c.2-.6,.8-.9,1.3-.6l9.7,5.6c.5,.3,.8,1.1,.6,1.7h0c-.2,.6-.8,.9-1.3,.6Z" style="fill:#fff;"/></g><path d="M184.1,115.9l-17-9.8c-.5-.3-.8-1.1-.6-1.7h0c.2-.6,.8-.9,1.3-.6l17,9.8c.5,.3,.8,1.1,.6,1.7h0c-.2,.6-.8,.9-1.3,.6Z" style="fill:#e8975b;"/><path d="M174,121l-9.7-5.6c-.5-.3-.8-1.1-.6-1.7h0c.2-.6,.8-.9,1.3-.6l9.7,5.6c.5,.3,.8,1.1,.6,1.7h0c-.2,.6-.8,.9-1.3,.6Z" style="fill:#e8975b;"/><path d="M190.3,125l-3.5-2c-.5-.3-.8-1.1-.6-1.7h0c.2-.6,.8-.9,1.3-.6l3.5,2c.5,.3,.8,1.1,.6,1.7h0c-.2,.6-.8,.9-1.3,.6Z" style="fill:#e8975b;"/><path d="M226.3,123.9l-21-12.1c-.5-.3-.8-1.1-.6-1.7h0c.2-.6,.8-.9,1.3-.6l21,12.1c.5,.3,.8,1.1,.6,1.7h0c-.2,.6-.8,.9-1.3,.6Z" style="fill:#e8975b;"/><path d="M173.2,131.5l-11.7-6.8c-.5-.3-.8-1.1-.6-1.7h0c.2-.6,.8-.9,1.3-.6l11.7,6.8c.5,.3,.8,1.1,.6,1.7h0c-.2,.6-.8,.9-1.3,.6h0Z" style="fill:#f8359e;"/><path d="M175,94.3l-8.6-5c-.5-.3-.8-1.1-.6-1.7h0c.2-.6,.8-.9,1.3-.6l8.6,5c.5,.3,.8,1.1,.6,1.7h0c-.2,.6-.8,.9-1.3,.6Z" style="fill:#f8359e;"/><path d="M162.4,141.7l-10-5.8c-.5-.3-.8-1.1-.6-1.7h0c.2-.6,.8-.9,1.3-.6l10,5.8c.5,.3,.8,1.1,.6,1.7h0c-.2,.6-.8,.9-1.3,.6Z" style="fill:#e8975b;"/></g><g><path d="M228.7,113.1l-4.3-2.5c-.4-.2-.6-.8-.5-1.2h0c.1-.4,.6-.6,1-.4l4.3,2.5c.4,.2,.6,.8,.5,1.2h0c-.1,.4-.6,.6-1,.4Z" style="fill:#fff;"/><path d="M236.8,117.8l-4.3-2.5c-.4-.2-.6-.8-.5-1.2h0c.1-.4,.6-.6,1-.4l4.3,2.5c.4,.2,.6,.8,.5,1.2h0c-.1,.4-.6,.6-1,.4Z" style="fill:#fff;"/><path d="M244.9,122.5l-4.3-2.5c-.4-.2-.6-.8-.5-1.2h0c.1-.4,.6-.6,1-.4l4.3,2.5c.4,.2,.6,.8,.5,1.2h0c-.1,.4-.6,.6-1,.4Z" style="fill:#fff;"/><path d="M249,124.8h-.1c-.4-.3-.6-.9-.5-1.3h0c.1-.4,.6-.6,1-.4h.1c.4,.3,.6,.9,.5,1.3h0c-.1,.4-.6,.6-1,.4Z" style="fill:#f8359e;"/></g><g><path d="M42.4,161.1c-7.7,4.4-20.1,4.4-27.8,0s-7.7-11.6,0-16c7.7-4.4,20.1-4.4,27.8,0s7.7,11.6,0,16Z" style="fill:#020230; isolation:isolate; opacity:.6;"/><path d="M57.6,72.3H1.7l5.2,60.6h0c0,3.4,2.2,6.7,6.7,9.3,8.9,5.1,23.3,5.1,32.2,0,4.4-2.6,6.7-5.9,6.7-9.3l5.2-60.6h0Z" style="fill:url(#Gradiente_sem_nome_12);"/><path d="M57.6,72.3H1.7l.9,10c1.3,1.6,3,3.2,5.2,4.7,10.7,7.1,28.3,8.5,40.4,3.3l-1.9,44.3c0,1.9-.8,3.8-2,5.3-1.8,2.1-5.3,4.6-12,6.1,4.9-.3,9.8-1.6,13.5-3.8,4.5-2.6,6.7-5.9,6.7-9.3l4.2-48.6h0l1-12h0Z" style="fill:#06033e; isolation:isolate; opacity:.4;"/><ellipse cx="29.6" cy="72.3" rx="28" ry="16.2" style="fill:#06033e; isolation:isolate; opacity:.4;"/><ellipse cx="29.6" cy="66.6" rx="24.1" ry="13.9" style="fill:#06033e; isolation:isolate; opacity:.4;"/><path d="M59.3,71.6h0c0-.1-.5-5.6-.5-5.6h0c-.2-4-3.1-8.1-8.5-11.2-11.4-6.6-29.8-6.6-41.1,0-5.6,3.2-8.4,7.4-8.5,11.6H.6l-.5,4.8c0,.1,0,.2,0,.4H0c-.3,4.7,2.6,9.3,8.7,12.8,11.6,6.7,30.4,6.7,41.9,0,6.1-3.5,9-8.2,8.7-12.9h0Z" style="fill:url(#Gradiente_sem_nome_13);"/><ellipse cx="29.6" cy="66.6" rx="24.1" ry="13.9" style="fill:url(#Gradiente_sem_nome_14);"/><ellipse cx="28.5" cy="66.6" rx="24.1" ry="13.9" style="fill:url(#Gradiente_sem_nome_15);"/><path d="M15.5,58.9c9.4-5.4,24.7-5.4,34.1,0,.1,0,.2,.1,.3,.2-.9-.8-2-1.6-3.2-2.3-9.4-5.4-24.7-5.4-34.1,0-9.3,5.4-9.4,14-.3,19.5-6-5.4-5-12.7,3.2-17.4h0Z" style="fill:#06033e; isolation:isolate; opacity:.4;"/><path d="M12.6,59.2c9.4-5.4,24.7-5.4,34.1,0,4.2,2.4,6.5,5.5,7,8.6,.6-4-1.7-8-7-11-9.4-5.4-24.7-5.4-34.1,0-5.2,3-7.6,7.1-7,11,.5-3.2,2.8-6.2,7-8.6Z" style="fill:url(#Gradiente_sem_nome_16);"/><path d="M50.4,54.9c-11.3-6.7-29.8-6.8-41.3-.4s-11.6,17.2-.2,23.8,29.8,6.8,41.3,.4c11.5-6.5,11.6-17.2,.2-23.8h0Zm-3.7,21.6c-3.1,1.8-6.9,3-10.9,3.6l-.4-1.4c-.2-.6-.7-1-1.3-1h-8.7c-.6,0-1.1,.4-1.3,1l-.4,1.4c-4-.6-7.8-1.8-10.9-3.6-9.4-5.4-9.4-14.2,0-19.7s24.7-5.4,34.1,0,9.4,14.2,0,19.7Z" style="fill:url(#Gradiente_sem_nome_17);"/><g><path d="M46.7,55.8c-9.4-5.4-24.7-5.4-34.1,0-4.9,2.8-7.3,6.6-7,10.4,.2-3.4,2.6-6.7,7-9.3,9.4-5.4,24.7-5.4,34.1,0,4.5,2.6,6.8,5.9,7,9.3,.2-3.7-2.1-7.5-7-10.4Z" style="fill:#fff;"/><path d="M50.2,77.7c-11.5,6.5-29.9,6.3-41.3-.4-5.4-3.2-8.2-7.3-8.4-11.4-.2,4.4,2.6,8.9,8.4,12.4,11.3,6.7,29.8,6.8,41.3,.4,6-3.4,8.9-7.9,8.6-12.5-.2,4.2-3.1,8.3-8.6,11.4Z" style="fill:#fff;"/></g><rect x="26.4" y="79.4" width="6.5" height="1.4" rx=".7" ry=".7" style="fill:#0c0a78;"/><path d="M32.2,79.4h-5.2c-.4,0-.7,.3-.7,.7h0c0,.1,0,.2,0,.3,0-.3,.3-.5,.6-.5h5.2c.3,0,.5,.2,.6,.5,0,0,0-.1,0-.2h0c0-.4-.3-.7-.7-.7h0Z" style="fill:url(#Gradiente_sem_nome_18);"/></g><path d="M31.5,80.1s15.6-5.2,9.3-23.2-18.7-23.5-13.7-37.8c0,0-7.8,11.6-.5,27.4s8.9,13.9,8.8,21.5c0,8.9-7.3,12.2-7.3,12.2h3.5Z" style="fill:#fff; isolation:isolate; opacity:.5;"/><path d="M32.9,21.6s-1.6-10.8,8.5-21.6c0,0-8.9,19.9-6,29.8,0,0-2.4-6.2-2.5-8.2Z" style="fill:#fff; isolation:isolate; opacity:.5;"/></svg>